<svg width="21" height="21" viewBox="0 0 21 21" fill="none" xmlns="http://www.w3.org/2000/svg">
<rect width="21" height="21" fill="white"/>
<path d="M13.056 5.568C12.2773 5.23733 11.504 5.072 10.736 5.072C9.17867 5.072 8.4 5.648 8.4 6.8C8.4 7.30133 8.576 7.77067 8.928 8.208C9.28 8.63467 9.70667 9.01867 10.208 9.36C10.7093 9.69067 11.2107 10.032 11.712 10.384C12.2133 10.736 12.64 11.1573 12.992 11.648C13.344 12.1387 13.52 12.672 13.52 13.248C13.52 14.2187 13.1947 14.9547 12.544 15.456C11.8933 15.9467 10.992 16.192 9.84 16.192C8.69867 16.192 7.72267 15.8987 6.912 15.312L7.296 14.736C8.064 15.2373 8.90667 15.488 9.824 15.488C10.7413 15.488 11.4453 15.3067 11.936 14.944C12.4267 14.5707 12.672 14.0373 12.672 13.344C12.672 12.864 12.496 12.4107 12.144 11.984C11.792 11.5467 11.3653 11.1573 10.864 10.816C10.3627 10.464 9.86133 10.1067 9.36 9.744C8.85867 9.38133 8.432 8.94933 8.08 8.448C7.728 7.94667 7.552 7.408 7.552 6.832C7.552 6.07467 7.82933 5.47733 8.384 5.04C8.94933 4.592 9.70667 4.368 10.656 4.368C11.616 4.368 12.5067 4.56 13.328 4.944L13.056 5.568Z" fill="black"/>
</svg>
