<svg width="143" height="19" viewBox="0 0 143 19" fill="none" xmlns="http://www.w3.org/2000/svg">
<path d="M9.584 2.352C8.416 1.856 7.256 1.608 6.104 1.608C3.768 1.608 2.6 2.472 2.6 4.2C2.6 4.952 2.864 5.656 3.392 6.312C3.92 6.952 4.56 7.528 5.312 8.04C6.064 8.536 6.816 9.048 7.568 9.576C8.32 10.104 8.96 10.736 9.488 11.472C10.016 12.208 10.28 13.008 10.28 13.872C10.28 15.328 9.792 16.432 8.816 17.184C7.84 17.92 6.488 18.288 4.76 18.288C3.048 18.288 1.584 17.848 0.368 16.968L0.944 16.104C2.096 16.856 3.36 17.232 4.736 17.232C6.112 17.232 7.168 16.96 7.904 16.416C8.64 15.856 9.008 15.056 9.008 14.016C9.008 13.296 8.744 12.616 8.216 11.976C7.688 11.32 7.048 10.736 6.296 10.224C5.544 9.696 4.792 9.16 4.04 8.616C3.288 8.072 2.648 7.424 2.12 6.672C1.592 5.92 1.328 5.112 1.328 4.248C1.328 3.112 1.744 2.216 2.576 1.56C3.424 0.887999 4.56 0.551999 5.984 0.551999C7.424 0.551999 8.76 0.839999 9.992 1.416L9.584 2.352ZM15.773 12.6L13.541 18H12.413L18.941 2.328H19.589L26.165 18H24.941L22.685 12.6H15.773ZM19.205 4.104C18.965 4.824 18.749 5.424 18.557 5.904L16.157 11.664H22.301L19.925 5.928C19.557 5.032 19.317 4.424 19.205 4.104ZM36.5493 17.184H35.9013L31.3653 6.168C31.1733 5.736 30.9813 5.232 30.7893 4.656C30.7893 4.672 30.7733 4.76 30.7413 4.92C30.7253 5.08 30.7013 5.296 30.6693 5.568C30.6373 5.824 30.6053 6.04 30.5733 6.216L28.7733 18H27.6933L30.2373 2.328H30.8853L35.7333 13.824C36.1173 14.784 36.3093 15.288 36.3093 15.336C36.4213 15 36.6373 14.504 36.9573 13.848L42.3573 2.328H43.0053L45.3813 18H44.2293L42.5253 6.168C42.4133 5.384 42.3573 4.864 42.3573 4.608L41.6613 6.192L36.5493 17.184ZM49.505 18V2.52C50.705 2.392 51.969 2.328 53.297 2.328C54.641 2.328 55.777 2.688 56.705 3.408C57.633 4.112 58.097 5.184 58.097 6.624C58.097 8.064 57.465 9.248 56.201 10.176C54.937 11.088 53.441 11.544 51.713 11.544C51.633 11.544 51.545 11.544 51.449 11.544V10.776C51.513 10.776 51.569 10.776 51.617 10.776C53.041 10.776 54.281 10.4 55.337 9.648C56.393 8.896 56.921 7.92 56.921 6.72C56.921 5.52 56.545 4.648 55.793 4.104C55.057 3.56 54.081 3.288 52.865 3.288C52.225 3.288 51.473 3.32 50.609 3.384V18H49.505ZM62.1847 18V2.424H63.2887V16.992H70.4407V18H62.1847ZM73.7159 18V2.424H80.9879V3.384H74.8199V9.048H80.3879V9.984H74.8199V16.992H81.2279V18H73.7159ZM94.0456 17.112H93.3976L88.3816 4.968C88.0936 4.296 87.8616 3.704 87.6856 3.192L87.4456 5.016L85.4776 18H84.3016L87.1336 0.696H87.8056L93.1576 13.416C93.4296 14.008 93.6456 14.568 93.8056 15.096C93.8536 14.92 94.1016 14.368 94.5496 13.44L100.526 0.696H101.174L103.79 18H102.59L100.718 4.968C100.59 4.152 100.526 3.536 100.526 3.12C100.51 3.136 100.47 3.216 100.406 3.36C100.358 3.488 100.262 3.712 100.118 4.032C99.9896 4.336 99.8536 4.656 99.7096 4.992L94.0456 17.112ZM108.984 12.6L106.752 18H105.624L112.152 2.328H112.8L119.376 18H118.152L115.896 12.6H108.984ZM112.416 4.104C112.176 4.824 111.96 5.424 111.768 5.904L109.368 11.664H115.512L113.136 5.928C112.768 5.032 112.528 4.424 112.416 4.104ZM122.536 18V2.424H123.64V16.992H130.792V18H122.536ZM134.068 18V2.424H135.172V16.992H142.324V18H134.068Z" fill="black"/>
</svg>
